<mxfile host="app.diagrams.net" modified="2023-09-13T14:39:04.853Z" agent="Mozilla/5.0 (Macintosh; Intel Mac OS X 10_15_7) AppleWebKit/605.1.15 (KHTML, like Gecko) Version/16.6 Safari/605.1.15" etag="bsmM98Q5GZReuB_A-5mR" version="21.7.5" type="github">
  <diagram name="Page-1" id="uwYLxj5Vv7y9zGeW3Swz">
    <mxGraphModel dx="1242" dy="803" grid="1" gridSize="10" guides="1" tooltips="1" connect="1" arrows="1" fold="1" page="1" pageScale="1" pageWidth="827" pageHeight="1169" math="0" shadow="0">
      <root>
        <mxCell id="0" />
        <mxCell id="1" parent="0" />
        <mxCell id="o43Yr_tPFTwhBiepEsA_-1" value="Actor" style="shape=umlActor;verticalLabelPosition=bottom;verticalAlign=top;html=1;outlineConnect=0;" vertex="1" parent="1">
          <mxGeometry x="40" y="240" width="30" height="60" as="geometry" />
        </mxCell>
        <mxCell id="o43Yr_tPFTwhBiepEsA_-3" value="Backend server" style="swimlane;whiteSpace=wrap;html=1;" vertex="1" parent="1">
          <mxGeometry x="280" y="170" width="200" height="200" as="geometry" />
        </mxCell>
        <mxCell id="o43Yr_tPFTwhBiepEsA_-4" value="Video (Janus) server&amp;nbsp;" style="swimlane;whiteSpace=wrap;html=1;" vertex="1" parent="1">
          <mxGeometry x="680" y="170" width="200" height="200" as="geometry" />
        </mxCell>
        <mxCell id="o43Yr_tPFTwhBiepEsA_-5" value="" style="shape=flexArrow;endArrow=classic;startArrow=classic;html=1;rounded=0;entryX=0;entryY=0.5;entryDx=0;entryDy=0;exitX=1;exitY=0.5;exitDx=0;exitDy=0;" edge="1" parent="1" source="o43Yr_tPFTwhBiepEsA_-3" target="o43Yr_tPFTwhBiepEsA_-4">
          <mxGeometry width="100" height="100" relative="1" as="geometry">
            <mxPoint x="480" y="260" as="sourcePoint" />
            <mxPoint x="560" y="230" as="targetPoint" />
          </mxGeometry>
        </mxCell>
        <mxCell id="o43Yr_tPFTwhBiepEsA_-7" value="Protocol - ???&lt;br&gt;RabbitMQ? Websocket?" style="edgeLabel;html=1;align=center;verticalAlign=middle;resizable=0;points=[];" vertex="1" connectable="0" parent="o43Yr_tPFTwhBiepEsA_-5">
          <mxGeometry x="0.22" relative="1" as="geometry">
            <mxPoint x="-11" y="-30" as="offset" />
          </mxGeometry>
        </mxCell>
        <mxCell id="o43Yr_tPFTwhBiepEsA_-6" value="" style="shape=flexArrow;endArrow=classic;startArrow=classic;html=1;rounded=0;entryX=0;entryY=0.5;entryDx=0;entryDy=0;" edge="1" parent="1" target="o43Yr_tPFTwhBiepEsA_-3">
          <mxGeometry width="100" height="100" relative="1" as="geometry">
            <mxPoint x="80" y="270" as="sourcePoint" />
            <mxPoint x="460" y="360" as="targetPoint" />
          </mxGeometry>
        </mxCell>
        <mxCell id="o43Yr_tPFTwhBiepEsA_-9" value="REST API (swagger)&lt;br&gt;+&lt;br&gt;WebSocket" style="edgeLabel;html=1;align=center;verticalAlign=middle;resizable=0;points=[];" vertex="1" connectable="0" parent="o43Yr_tPFTwhBiepEsA_-6">
          <mxGeometry x="-0.2182" y="3" relative="1" as="geometry">
            <mxPoint x="-3" y="-47" as="offset" />
          </mxGeometry>
        </mxCell>
      </root>
    </mxGraphModel>
  </diagram>
</mxfile>
